<svg xmlns="http://www.w3.org/2000/svg" width="760" height="420" viewBox="0 0 760 420"><rect x="0.5" y="0.5" width="759" height="419" rx="8" fill="#fcfcfb" stroke="rgba(11,11,11,0.10)"/><text x="24" y="34" font-family="system-ui, -apple-system, 'Segoe UI', sans-serif" font-size="15" fill="#0b0b0b" font-weight="600">Tokens per hour — workshop, July 3, 2026</text><text x="24" y="54" font-family="system-ui, -apple-system, 'Segoe UI', sans-serif" font-size="12" fill="#898781">Coding activity 3p6f1prcjk · SCCH provider · local time (CEST)</text><rect x="64" y="66" width="10" height="10" rx="3" fill="#2a78d6"/><text x="80" y="75" font-family="system-ui, -apple-system, 'Segoe UI', sans-serif" font-size="12" fill="#52514e">New input</text><rect x="172" y="66" width="10" height="10" rx="3" fill="#1baf7a"/><text x="188" y="75" font-family="system-ui, -apple-system, 'Segoe UI', sans-serif" font-size="12" fill="#52514e">Cached input</text><rect x="304" y="66" width="10" height="10" rx="3" fill="#eda100"/><text x="320" y="75" font-family="system-ui, -apple-system, 'Segoe UI', sans-serif" font-size="12" fill="#52514e">Output</text><text x="56" y="378" font-family="system-ui, -apple-system, 'Segoe UI', sans-serif" font-size="11" fill="#898781" text-anchor="end">0</text><line x1="64" y1="305.5" x2="736" y2="305.5" stroke="#e1e0d9" stroke-width="1"/><text x="56" y="309.5" font-family="system-ui, -apple-system, 'Segoe UI', sans-serif" font-size="11" fill="#898781" text-anchor="end">2M</text><line x1="64" y1="237.0" x2="736" y2="237.0" stroke="#e1e0d9" stroke-width="1"/><text x="56" y="241.0" font-family="system-ui, -apple-system, 'Segoe UI', sans-serif" font-size="11" fill="#898781" text-anchor="end">4M</text><line x1="64" y1="168.5" x2="736" y2="168.5" stroke="#e1e0d9" stroke-width="1"/><text x="56" y="172.5" font-family="system-ui, -apple-system, 'Segoe UI', sans-serif" font-size="11" fill="#898781" text-anchor="end">6M</text><line x1="64" y1="100.0" x2="736" y2="100.0" stroke="#e1e0d9" stroke-width="1"/><text x="56" y="104.0" font-family="system-ui, -apple-system, 'Segoe UI', sans-serif" font-size="11" fill="#898781" text-anchor="end">8M</text><rect x="160.0" y="371.75" width="24" height="2.25" fill="#2a78d6"/><rect x="160.0" y="359.36" width="24" height="12.39" fill="#1baf7a"/><rect x="160.0" y="358.95" width="24" height="0.41" fill="#eda100"/><text x="172" y="350.95013900000004" font-family="system-ui, -apple-system, 'Segoe UI', sans-serif" font-size="11.5" fill="#0b0b0b" font-weight="600" text-anchor="middle">439K</text><text x="172" y="394" font-family="system-ui, -apple-system, 'Segoe UI', sans-serif" font-size="11.5" fill="#52514e" text-anchor="middle">08:00</text><rect x="316.0" y="345.83" width="24" height="28.17" fill="#2a78d6"/><rect x="316.0" y="224.65" width="24" height="121.18" fill="#1baf7a"/><rect x="316.0" y="217.39" width="24" height="7.27" fill="#eda100"/><text x="328" y="209.38649775" font-family="system-ui, -apple-system, 'Segoe UI', sans-serif" font-size="11.5" fill="#0b0b0b" font-weight="600" text-anchor="middle">4.6M</text><text x="328" y="394" font-family="system-ui, -apple-system, 'Segoe UI', sans-serif" font-size="11.5" fill="#52514e" text-anchor="middle">09:00</text><rect x="472.0" y="339.25" width="24" height="34.75" fill="#2a78d6"/><rect x="472.0" y="130.27" width="24" height="208.98" fill="#1baf7a"/><rect x="472.0" y="122.94" width="24" height="7.32" fill="#eda100"/><text x="484" y="114.94345849999998" font-family="system-ui, -apple-system, 'Segoe UI', sans-serif" font-size="11.5" fill="#0b0b0b" font-weight="600" text-anchor="middle">7.3M</text><text x="484" y="394" font-family="system-ui, -apple-system, 'Segoe UI', sans-serif" font-size="11.5" fill="#52514e" text-anchor="middle">10:00</text><rect x="628.0" y="373.37" width="24" height="0.63" fill="#2a78d6"/><rect x="628.0" y="372.56" width="24" height="0.80" fill="#1baf7a"/><rect x="628.0" y="372.48" width="24" height="0.08" fill="#eda100"/><text x="640" y="364.48019050000005" font-family="system-ui, -apple-system, 'Segoe UI', sans-serif" font-size="11.5" fill="#0b0b0b" font-weight="600" text-anchor="middle">44K</text><text x="640" y="394" font-family="system-ui, -apple-system, 'Segoe UI', sans-serif" font-size="11.5" fill="#52514e" text-anchor="middle">11:00</text><line x1="64" y1="374" x2="736" y2="374" stroke="#c3c2b7" stroke-width="1"/></svg>