<svg xmlns="http://www.w3.org/2000/svg" width="760" height="380" viewBox="0 0 760 380"><rect x="0.5" y="0.5" width="759" height="379" rx="8" fill="#fcfcfb" stroke="rgba(11,11,11,0.10)"/><text x="24" y="34" font-family="system-ui, -apple-system, 'Segoe UI', sans-serif" font-size="15" fill="#0b0b0b" font-weight="600">Total tokens per day — three 2026 workshops</text><text x="24" y="54" font-family="system-ui, -apple-system, 'Segoe UI', sans-serif" font-size="12" fill="#898781">Jul 3 rehearsal (SCCH) vs. the two Azure Foundry workshops · this report highlighted</text><text x="56" y="338" font-family="system-ui, -apple-system, 'Segoe UI', sans-serif" font-size="11" fill="#898781" text-anchor="end">0</text><line x1="64" y1="254.0" x2="736" y2="254.0" stroke="#e1e0d9" stroke-width="1"/><text x="56" y="258.0" font-family="system-ui, -apple-system, 'Segoe UI', sans-serif" font-size="11" fill="#898781" text-anchor="end">50M</text><line x1="64" y1="174.0" x2="736" y2="174.0" stroke="#e1e0d9" stroke-width="1"/><text x="56" y="178.0" font-family="system-ui, -apple-system, 'Segoe UI', sans-serif" font-size="11" fill="#898781" text-anchor="end">100M</text><line x1="64" y1="94.0" x2="736" y2="94.0" stroke="#e1e0d9" stroke-width="1"/><text x="56" y="98.0" font-family="system-ui, -apple-system, 'Segoe UI', sans-serif" font-size="11" fill="#898781" text-anchor="end">150M</text><g fill="#2a78d6"><path d="M180,334 L180,318.1815024 Q180,314.1815024 184,314.1815024 L216,314.1815024 Q220,314.1815024 220,318.1815024 L220,334 Z"/></g><text x="200.0" y="306.1815024" font-family="system-ui, -apple-system, 'Segoe UI', sans-serif" font-size="11.5" fill="#0b0b0b" font-weight="600" text-anchor="middle">12M</text><text x="200.0" y="354" font-family="system-ui, -apple-system, 'Segoe UI', sans-serif" font-size="11.5" fill="#0b0b0b" font-weight="600" text-anchor="middle">Jul 3</text><g fill="#9ec5f4"><path d="M372,334 L372,252.277192 Q372,248.277192 376,248.277192 L408,248.277192 Q412,248.277192 412,252.277192 L412,334 Z"/></g><text x="392.0" y="240.277192" font-family="system-ui, -apple-system, 'Segoe UI', sans-serif" font-size="11.5" fill="#0b0b0b" font-weight="600" text-anchor="middle">54M</text><text x="392.0" y="354" font-family="system-ui, -apple-system, 'Segoe UI', sans-serif" font-size="11.5" fill="#52514e" text-anchor="middle">Jul 8</text><g fill="#9ec5f4"><path d="M564,334 L564,103.1708448 Q564,99.1708448 568,99.1708448 L600,99.1708448 Q604,99.1708448 604,103.1708448 L604,334 Z"/></g><text x="584.0" y="91.1708448" font-family="system-ui, -apple-system, 'Segoe UI', sans-serif" font-size="11.5" fill="#0b0b0b" font-weight="600" text-anchor="middle">147M</text><text x="584.0" y="354" font-family="system-ui, -apple-system, 'Segoe UI', sans-serif" font-size="11.5" fill="#52514e" text-anchor="middle">Jul 14</text><line x1="64" y1="334" x2="736" y2="334" stroke="#c3c2b7" stroke-width="1"/></svg>