<svg xmlns="http://www.w3.org/2000/svg" width="760" height="300" viewBox="0 0 760 300"><rect x="0.5" y="0.5" width="759" height="299" rx="8" fill="#fcfcfb" stroke="rgba(11,11,11,0.10)"/><text x="24" y="34" font-family="system-ui, -apple-system, 'Segoe UI', sans-serif" font-size="15" fill="#0b0b0b" font-weight="600">Share of tokens vs. share of cost — workshop day</text><text x="24" y="54" font-family="system-ui, -apple-system, 'Segoe UI', sans-serif" font-size="12" fill="#898781">New input is 39% of tokens but 72% of cost; cached input is 59% of tokens but 11% of cost</text><rect x="90" y="66" width="10" height="10" rx="3" fill="#2a78d6"/><text x="106" y="75" font-family="system-ui, -apple-system, 'Segoe UI', sans-serif" font-size="12" fill="#52514e">New input</text><rect x="198" y="66" width="10" height="10" rx="3" fill="#1baf7a"/><text x="214" y="75" font-family="system-ui, -apple-system, 'Segoe UI', sans-serif" font-size="12" fill="#52514e">Cached input</text><rect x="330" y="66" width="10" height="10" rx="3" fill="#eda100"/><text x="346" y="75" font-family="system-ui, -apple-system, 'Segoe UI', sans-serif" font-size="12" fill="#52514e">Output</text><text x="78" y="112" font-family="system-ui, -apple-system, 'Segoe UI', sans-serif" font-size="12.5" fill="#0b0b0b" font-weight="600" text-anchor="end">Tokens</text><rect x="90.00" y="96" width="254.82" height="24" rx="4" fill="#2a78d6"/><text x="217.41000373364201" y="112" font-family="system-ui, -apple-system, 'Segoe UI', sans-serif" font-size="11.5" fill="#ffffff" font-weight="600" text-anchor="middle">39.4%</text><rect x="344.82" y="96" width="381.36" height="24" rx="4" fill="#1baf7a"/><text x="535.5010595004687" y="112" font-family="system-ui, -apple-system, 'Segoe UI', sans-serif" font-size="11.5" fill="#ffffff" font-weight="600" text-anchor="middle">59.0%</text><rect x="726.18" y="96" width="9.82" height="24" rx="4" fill="#eda100"/><text x="731.0910557668267" y="90" font-family="system-ui, -apple-system, 'Segoe UI', sans-serif" font-size="11" fill="#0b0b0b" font-weight="600" text-anchor="middle">1.5%</text><text x="78" y="176" font-family="system-ui, -apple-system, 'Segoe UI', sans-serif" font-size="12.5" fill="#0b0b0b" font-weight="600" text-anchor="end">Cost</text><rect x="90.00" y="160" width="467.83" height="24" rx="4" fill="#2a78d6"/><text x="323.91699061347606" y="176" font-family="system-ui, -apple-system, 'Segoe UI', sans-serif" font-size="11.5" fill="#ffffff" font-weight="600" text-anchor="middle">72.4%</text><rect x="557.83" y="160" width="70.02" height="24" rx="4" fill="#1baf7a"/><text x="592.8418585925791" y="176" font-family="system-ui, -apple-system, 'Segoe UI', sans-serif" font-size="11.5" fill="#ffffff" font-weight="600" text-anchor="middle">10.8%</text><rect x="627.85" y="160" width="108.15" height="24" rx="4" fill="#eda100"/><text x="681.924867979103" y="176" font-family="system-ui, -apple-system, 'Segoe UI', sans-serif" font-size="11.5" fill="#ffffff" font-weight="600" text-anchor="middle">16.7%</text></svg>