<svg xmlns="http://www.w3.org/2000/svg" width="760" height="380" viewBox="0 0 760 380"><rect x="0.5" y="0.5" width="759" height="379" rx="8" fill="#fcfcfb" stroke="rgba(11,11,11,0.10)"/><text x="24" y="34" font-family="system-ui, -apple-system, 'Segoe UI', sans-serif" font-size="15" fill="#0b0b0b" font-weight="600">Total tokens per day — July 7–14, 2026</text><text x="24" y="54" font-family="system-ui, -apple-system, 'Segoe UI', sans-serif" font-size="12" fill="#898781">Coding activity jucdss64gm · the two workshop days highlighted</text><text x="56" y="338" font-family="system-ui, -apple-system, 'Segoe UI', sans-serif" font-size="11" fill="#898781" text-anchor="end">0</text><line x1="64" y1="254.0" x2="736" y2="254.0" stroke="#e1e0d9" stroke-width="1"/><text x="56" y="258.0" font-family="system-ui, -apple-system, 'Segoe UI', sans-serif" font-size="11" fill="#898781" text-anchor="end">50M</text><line x1="64" y1="174.0" x2="736" y2="174.0" stroke="#e1e0d9" stroke-width="1"/><text x="56" y="178.0" font-family="system-ui, -apple-system, 'Segoe UI', sans-serif" font-size="11" fill="#898781" text-anchor="end">100M</text><line x1="64" y1="94.0" x2="736" y2="94.0" stroke="#e1e0d9" stroke-width="1"/><text x="56" y="98.0" font-family="system-ui, -apple-system, 'Segoe UI', sans-serif" font-size="11" fill="#898781" text-anchor="end">150M</text><g fill="#9ec5f4"><path d="M94,334 L94,337.724064 Q94,333.724064 98,333.724064 L114,333.724064 Q118,333.724064 118,337.724064 L118,334 Z"/></g><text x="106.0" y="325.724064" font-family="system-ui, -apple-system, 'Segoe UI', sans-serif" font-size="11.5" fill="#0b0b0b" font-weight="600" text-anchor="middle">172K</text><text x="106.0" y="354" font-family="system-ui, -apple-system, 'Segoe UI', sans-serif" font-size="11.5" fill="#52514e" text-anchor="middle">Jul 7</text><g fill="#2a78d6"><path d="M178,334 L178,252.24878560000002 Q178,248.24878560000002 182,248.24878560000002 L198,248.24878560000002 Q202,248.24878560000002 202,252.24878560000002 L202,334 Z"/></g><text x="190.0" y="240.24878560000002" font-family="system-ui, -apple-system, 'Segoe UI', sans-serif" font-size="11.5" fill="#0b0b0b" font-weight="600" text-anchor="middle">54M</text><text x="190.0" y="354" font-family="system-ui, -apple-system, 'Segoe UI', sans-serif" font-size="11.5" fill="#0b0b0b" font-weight="600" text-anchor="middle">Jul 8</text><g fill="#9ec5f4"><rect x="262" y="333" width="24" height="1"/></g><text x="274.0" y="354" font-family="system-ui, -apple-system, 'Segoe UI', sans-serif" font-size="11.5" fill="#52514e" text-anchor="middle">Jul 9</text><g fill="#9ec5f4"><rect x="346" y="333" width="24" height="1"/></g><text x="358.0" y="354" font-family="system-ui, -apple-system, 'Segoe UI', sans-serif" font-size="11.5" fill="#52514e" text-anchor="middle">Jul 10</text><g fill="#9ec5f4"><rect x="430" y="333" width="24" height="1"/></g><text x="442.0" y="354" font-family="system-ui, -apple-system, 'Segoe UI', sans-serif" font-size="11.5" fill="#52514e" text-anchor="middle">Jul 11</text><g fill="#9ec5f4"><rect x="514" y="333" width="24" height="1"/></g><text x="526.0" y="354" font-family="system-ui, -apple-system, 'Segoe UI', sans-serif" font-size="11.5" fill="#52514e" text-anchor="middle">Jul 12</text><g fill="#9ec5f4"><rect x="598" y="333" width="24" height="1"/></g><text x="610.0" y="354" font-family="system-ui, -apple-system, 'Segoe UI', sans-serif" font-size="11.5" fill="#52514e" text-anchor="middle">Jul 13</text><g fill="#2a78d6"><path d="M682,334 L682,103.1708448 Q682,99.1708448 686,99.1708448 L702,99.1708448 Q706,99.1708448 706,103.1708448 L706,334 Z"/></g><text x="694.0" y="91.1708448" font-family="system-ui, -apple-system, 'Segoe UI', sans-serif" font-size="11.5" fill="#0b0b0b" font-weight="600" text-anchor="middle">147M</text><text x="694.0" y="354" font-family="system-ui, -apple-system, 'Segoe UI', sans-serif" font-size="11.5" fill="#0b0b0b" font-weight="600" text-anchor="middle">Jul 14</text><line x1="64" y1="334" x2="736" y2="334" stroke="#c3c2b7" stroke-width="1"/></svg>