<svg xmlns="http://www.w3.org/2000/svg" width="760" height="420" viewBox="0 0 760 420"><rect x="0.5" y="0.5" width="759" height="419" rx="8" fill="#fcfcfb" stroke="rgba(11,11,11,0.10)"/><text x="24" y="34" font-family="system-ui, -apple-system, 'Segoe UI', sans-serif" font-size="15" fill="#0b0b0b" font-weight="600">Tokens per hour — workshop, July 14, 2026</text><text x="24" y="54" font-family="system-ui, -apple-system, 'Segoe UI', sans-serif" font-size="12" fill="#898781">Coding activity jucdss64gm · gpt-5.4-mini (Azure Foundry) · local time (CEST)</text><rect x="64" y="66" width="10" height="10" rx="3" fill="#2a78d6"/><text x="80" y="75" font-family="system-ui, -apple-system, 'Segoe UI', sans-serif" font-size="12" fill="#52514e">New input</text><rect x="172" y="66" width="10" height="10" rx="3" fill="#1baf7a"/><text x="188" y="75" font-family="system-ui, -apple-system, 'Segoe UI', sans-serif" font-size="12" fill="#52514e">Cached input</text><rect x="304" y="66" width="10" height="10" rx="3" fill="#eda100"/><text x="320" y="75" font-family="system-ui, -apple-system, 'Segoe UI', sans-serif" font-size="12" fill="#52514e">Output</text><text x="56" y="378" font-family="system-ui, -apple-system, 'Segoe UI', sans-serif" font-size="11" fill="#898781" text-anchor="end">0</text><line x1="64" y1="305.5" x2="736" y2="305.5" stroke="#e1e0d9" stroke-width="1"/><text x="56" y="309.5" font-family="system-ui, -apple-system, 'Segoe UI', sans-serif" font-size="11" fill="#898781" text-anchor="end">20M</text><line x1="64" y1="237.0" x2="736" y2="237.0" stroke="#e1e0d9" stroke-width="1"/><text x="56" y="241.0" font-family="system-ui, -apple-system, 'Segoe UI', sans-serif" font-size="11" fill="#898781" text-anchor="end">40M</text><line x1="64" y1="168.5" x2="736" y2="168.5" stroke="#e1e0d9" stroke-width="1"/><text x="56" y="172.5" font-family="system-ui, -apple-system, 'Segoe UI', sans-serif" font-size="11" fill="#898781" text-anchor="end">60M</text><line x1="64" y1="100.0" x2="736" y2="100.0" stroke="#e1e0d9" stroke-width="1"/><text x="56" y="104.0" font-family="system-ui, -apple-system, 'Segoe UI', sans-serif" font-size="11" fill="#898781" text-anchor="end">80M</text><rect x="188.0" y="345.24" width="24" height="28.76" fill="#2a78d6"/><rect x="188.0" y="310.42" width="24" height="34.82" fill="#1baf7a"/><rect x="188.0" y="308.61" width="24" height="1.81" fill="#eda100"/><text x="200" y="300.612143375" font-family="system-ui, -apple-system, 'Segoe UI', sans-serif" font-size="11.5" fill="#0b0b0b" font-weight="600" text-anchor="middle">19M</text><text x="200" y="394" font-family="system-ui, -apple-system, 'Segoe UI', sans-serif" font-size="11.5" fill="#52514e" text-anchor="middle">14:00</text><rect x="388.0" y="254.13" width="24" height="119.87" fill="#2a78d6"/><rect x="388.0" y="106.44" width="24" height="147.68" fill="#1baf7a"/><rect x="388.0" y="102.07" width="24" height="4.38" fill="#eda100"/><text x="400" y="94.06511745000003" font-family="system-ui, -apple-system, 'Segoe UI', sans-serif" font-size="11.5" fill="#0b0b0b" font-weight="600" text-anchor="middle">79M</text><text x="400" y="394" font-family="system-ui, -apple-system, 'Segoe UI', sans-serif" font-size="11.5" fill="#52514e" text-anchor="middle">15:00</text><rect x="588.0" y="324.36" width="24" height="49.64" fill="#2a78d6"/><rect x="588.0" y="210.18" width="24" height="114.18" fill="#1baf7a"/><rect x="588.0" y="208.73" width="24" height="1.45" fill="#eda100"/><text x="600" y="200.73426275" font-family="system-ui, -apple-system, 'Segoe UI', sans-serif" font-size="11.5" fill="#0b0b0b" font-weight="600" text-anchor="middle">48M</text><text x="600" y="394" font-family="system-ui, -apple-system, 'Segoe UI', sans-serif" font-size="11.5" fill="#52514e" text-anchor="middle">16:00</text><line x1="64" y1="374" x2="736" y2="374" stroke="#c3c2b7" stroke-width="1"/></svg>