<svg xmlns="http://www.w3.org/2000/svg" width="760" height="300" viewBox="0 0 760 300">
<rect x="0.5" y="0.5" width="759" height="299" rx="8" fill="#fcfcfb" stroke="rgba(11,11,11,0.10)"/>
<text x="24" y="34" font-family="system-ui, -apple-system, 'Segoe UI', sans-serif" font-size="15" font-weight="600" fill="#0b0b0b">Share of tokens vs. share of cost — workshop day</text>
<text x="24" y="54" font-family="system-ui, -apple-system, 'Segoe UI', sans-serif" font-size="12" fill="#898781">Output is 2% of tokens but 31% of cost; cached input is 74% of tokens but 17% of cost</text>
<text x="78" y="112" font-family="system-ui, -apple-system, 'Segoe UI', sans-serif" font-size="12.5" font-weight="600" fill="#0b0b0b" text-anchor="end">Tokens</text><rect x="90" y="96" width="150.518" height="24" rx="4" fill="#2a78d6"/><text x="165.25900000000001" y="112" font-family="system-ui, -apple-system, 'Segoe UI', sans-serif" font-size="11.5" font-weight="600" fill="#ffffff" text-anchor="middle">23.3%</text><rect x="242.518" y="96" width="478.6240000000001" height="24" rx="0" fill="#1baf7a"/><text x="480.83000000000004" y="112" font-family="system-ui, -apple-system, 'Segoe UI', sans-serif" font-size="11.5" font-weight="600" fill="#ffffff" text-anchor="middle">74.4%</text><rect x="723.142" y="96" width="12.858" height="24" rx="4" fill="#eda100"/><text x="728.571" y="90" font-family="system-ui, -apple-system, 'Segoe UI', sans-serif" font-size="11" font-weight="600" fill="#0b0b0b" text-anchor="middle">2.3%</text><text x="78" y="176" font-family="system-ui, -apple-system, 'Segoe UI', sans-serif" font-size="12.5" font-weight="600" fill="#0b0b0b" text-anchor="end">Cost</text><rect x="90" y="160" width="337.212" height="24" rx="4" fill="#2a78d6"/><text x="258.606" y="176" font-family="system-ui, -apple-system, 'Segoe UI', sans-serif" font-size="11.5" font-weight="600" fill="#ffffff" text-anchor="middle">52.2%</text><rect x="429.212" y="160" width="105.88199999999999" height="24" rx="0" fill="#1baf7a"/><text x="481.15299999999996" y="176" font-family="system-ui, -apple-system, 'Segoe UI', sans-serif" font-size="11.5" font-weight="600" fill="#ffffff" text-anchor="middle">16.7%</text><rect x="537.0939999999999" y="160" width="198.906" height="24" rx="4" fill="#eda100"/><text x="635.5469999999999" y="176" font-family="system-ui, -apple-system, 'Segoe UI', sans-serif" font-size="11.5" font-weight="600" fill="#0b0b0b" text-anchor="middle">31.1%</text><rect x="90" y="66" width="10" height="10" rx="3" fill="#2a78d6"/><text x="106" y="75" font-family="system-ui, -apple-system, 'Segoe UI', sans-serif" font-size="12" fill="#52514e">New input</text><rect x="189.6" y="66" width="10" height="10" rx="3" fill="#1baf7a"/><text x="205.6" y="75" font-family="system-ui, -apple-system, 'Segoe UI', sans-serif" font-size="12" fill="#52514e">Cached input</text><rect x="308.4" y="66" width="10" height="10" rx="3" fill="#eda100"/><text x="324.4" y="75" font-family="system-ui, -apple-system, 'Segoe UI', sans-serif" font-size="12" fill="#52514e">Output</text>
</svg>