<svg xmlns="http://www.w3.org/2000/svg" width="760" height="420" viewBox="0 0 760 420">
<rect x="0.5" y="0.5" width="759" height="419" rx="8" fill="#fcfcfb" stroke="rgba(11,11,11,0.10)"/>
<text x="24" y="34" font-family="system-ui, -apple-system, 'Segoe UI', sans-serif" font-size="15" font-weight="600" fill="#0b0b0b">Tokens per hour — workshop, July 8, 2026</text>
<text x="24" y="54" font-family="system-ui, -apple-system, 'Segoe UI', sans-serif" font-size="12" fill="#898781">Coding activity jucdss64gm · gpt-5.4-mini (Azure Foundry) · local time (CEST)</text>
<text x="56" y="378" font-family="system-ui, -apple-system, 'Segoe UI', sans-serif" font-size="11" fill="#898781" text-anchor="end">0</text><line x1="64" y1="287.125" x2="736" y2="287.125" stroke="#e1e0d9" stroke-width="1"/><text x="56" y="291.125" font-family="system-ui, -apple-system, 'Segoe UI', sans-serif" font-size="11" fill="#898781" text-anchor="end">10M</text><line x1="64" y1="200.25" x2="736" y2="200.25" stroke="#e1e0d9" stroke-width="1"/><text x="56" y="204.25" font-family="system-ui, -apple-system, 'Segoe UI', sans-serif" font-size="11" fill="#898781" text-anchor="end">20M</text><line x1="64" y1="113.375" x2="736" y2="113.375" stroke="#e1e0d9" stroke-width="1"/><text x="56" y="117.375" font-family="system-ui, -apple-system, 'Segoe UI', sans-serif" font-size="11" fill="#898781" text-anchor="end">30M</text><g fill="#2a78d6"><rect x="136" y="360.2109915" width="24" height="13.7890085"/></g><g fill="#1baf7a"><rect x="136" y="330.8808795" width="24" height="27.330112"/></g><g fill="#eda100"><path d="M136,330.8808795 L136,330.07788084375 Q136,329.2748821875 136.80299865625,329.2748821875 L159.19700134375,329.2748821875 Q160,329.2748821875 160,330.07788084375 L160,330.8808795 Z"/></g><text x="148" y="321.2748821875" font-family="system-ui, -apple-system, 'Segoe UI', sans-serif" font-size="11.5" font-weight="600" fill="#0b0b0b" text-anchor="middle">5.1M</text><text x="148" y="394" font-family="system-ui, -apple-system, 'Segoe UI', sans-serif" font-size="11.5" fill="#52514e" text-anchor="middle">09:00</text><g fill="#2a78d6"><rect x="304" y="306.26582125" width="24" height="67.73417875"/></g><g fill="#1baf7a"><rect x="304" y="111.74032524999998" width="24" height="192.525496"/></g><g fill="#eda100"><path d="M304,109.74032524999998 L304,107.65537228124998 Q304,105.57041931249998 306.08495296875,105.57041931249998 L325.91504703125,105.57041931249998 Q328,105.57041931249998 328,107.65537228124998 L328,109.74032524999998 Z"/></g><text x="316" y="97.57041931249998" font-family="system-ui, -apple-system, 'Segoe UI', sans-serif" font-size="11.5" font-weight="600" fill="#0b0b0b" text-anchor="middle">30.9M</text><text x="316" y="394" font-family="system-ui, -apple-system, 'Segoe UI', sans-serif" font-size="11.5" fill="#52514e" text-anchor="middle">10:00</text><g fill="#2a78d6"><rect x="472" y="347.2292168125" width="24" height="26.7707831875"/></g><g fill="#1baf7a"><rect x="472" y="225.3884888125" width="24" height="119.840728"/></g><g fill="#eda100"><path d="M472,225.3884888125 L472,223.89211471874998 Q472,222.39574062499997 473.49637409375,222.39574062499997 L494.50362590625,222.39574062499997 Q496,222.39574062499997 496,223.89211471874998 L496,225.3884888125 Z"/></g><text x="484" y="214.39574062499997" font-family="system-ui, -apple-system, 'Segoe UI', sans-serif" font-size="11.5" font-weight="600" fill="#0b0b0b" text-anchor="middle">17.5M</text><text x="484" y="394" font-family="system-ui, -apple-system, 'Segoe UI', sans-serif" font-size="11.5" fill="#52514e" text-anchor="middle">11:00</text><g fill="#2a78d6"><rect x="640" y="373.25" width="24" height="0.75"/></g><g fill="#1baf7a"><rect x="640" y="372.5" width="24" height="0.75"/></g><g fill="#eda100"><rect x="640" y="371.75" width="24" height="0.75"/></g><text x="652" y="363.75" font-family="system-ui, -apple-system, 'Segoe UI', sans-serif" font-size="11.5" font-weight="600" fill="#0b0b0b" text-anchor="middle">79K</text><text x="652" y="394" font-family="system-ui, -apple-system, 'Segoe UI', sans-serif" font-size="11.5" fill="#52514e" text-anchor="middle">12:00</text><line x1="64" y1="374" x2="736" y2="374" stroke="#c3c2b7" stroke-width="1"/><rect x="64" y="66" width="10" height="10" rx="3" fill="#2a78d6"/><text x="80" y="75" font-family="system-ui, -apple-system, 'Segoe UI', sans-serif" font-size="12" fill="#52514e">New input</text><rect x="163.6" y="66" width="10" height="10" rx="3" fill="#1baf7a"/><text x="179.6" y="75" font-family="system-ui, -apple-system, 'Segoe UI', sans-serif" font-size="12" fill="#52514e">Cached input</text><rect x="282.4" y="66" width="10" height="10" rx="3" fill="#eda100"/><text x="298.4" y="75" font-family="system-ui, -apple-system, 'Segoe UI', sans-serif" font-size="12" fill="#52514e">Output</text>
</svg>