<svg xmlns="http://www.w3.org/2000/svg" width="760" height="380" viewBox="0 0 760 380">
<rect x="0.5" y="0.5" width="759" height="379" rx="8" fill="#fcfcfb" stroke="rgba(11,11,11,0.10)"/>
<text x="24" y="34" font-family="system-ui, -apple-system, 'Segoe UI', sans-serif" font-size="15" font-weight="600" fill="#0b0b0b">Total tokens per day — July 1–8, 2026</text>
<text x="24" y="54" font-family="system-ui, -apple-system, 'Segoe UI', sans-serif" font-size="12" fill="#898781">All activities, all modules · workshop day highlighted</text>
<text x="56" y="338" font-family="system-ui, -apple-system, 'Segoe UI', sans-serif" font-size="11" fill="#898781" text-anchor="end">0</text><line x1="64" y1="242.57142857142856" x2="736" y2="242.57142857142856" stroke="#e1e0d9" stroke-width="1"/><text x="56" y="246.57142857142856" font-family="system-ui, -apple-system, 'Segoe UI', sans-serif" font-size="11" fill="#898781" text-anchor="end">20M</text><line x1="64" y1="151.14285714285714" x2="736" y2="151.14285714285714" stroke="#e1e0d9" stroke-width="1"/><text x="56" y="155.14285714285714" font-family="system-ui, -apple-system, 'Segoe UI', sans-serif" font-size="11" fill="#898781" text-anchor="end">40M</text><g fill="#9ec5f4"><rect x="94" y="333" width="24" height="1"/></g><text x="106" y="354" font-family="system-ui, -apple-system, 'Segoe UI', sans-serif" font-size="11.5" fill="#52514e"  text-anchor="middle">Jul 1</text><g fill="#9ec5f4"><rect x="178" y="333" width="24" height="1"/></g><text x="190" y="354" font-family="system-ui, -apple-system, 'Segoe UI', sans-serif" font-size="11.5" fill="#52514e"  text-anchor="middle">Jul 2</text><g fill="#9ec5f4"><path d="M262,334 L262,281.3757211428572 Q262,277.3757211428572 266,277.3757211428572 L282,277.3757211428572 Q286,277.3757211428572 286,281.3757211428572 L286,334 Z"/></g><text x="274" y="269.3757211428572" font-family="system-ui, -apple-system, 'Segoe UI', sans-serif" font-size="11.5" font-weight="600" fill="#0b0b0b" text-anchor="middle">12.4M</text><text x="274" y="354" font-family="system-ui, -apple-system, 'Segoe UI', sans-serif" font-size="11.5" fill="#52514e"  text-anchor="middle">Jul 3</text><g fill="#9ec5f4"><rect x="346" y="333" width="24" height="1"/></g><text x="358" y="354" font-family="system-ui, -apple-system, 'Segoe UI', sans-serif" font-size="11.5" fill="#52514e"  text-anchor="middle">Jul 4</text><g fill="#9ec5f4"><rect x="430" y="333" width="24" height="1"/></g><text x="442" y="354" font-family="system-ui, -apple-system, 'Segoe UI', sans-serif" font-size="11.5" fill="#52514e"  text-anchor="middle">Jul 5</text><g fill="#9ec5f4"><rect x="514" y="333" width="24" height="1"/></g><text x="526" y="354" font-family="system-ui, -apple-system, 'Segoe UI', sans-serif" font-size="11.5" fill="#52514e"  text-anchor="middle">Jul 6</text><g fill="#9ec5f4"><rect x="598" y="333" width="24" height="1"/></g><text x="610" y="354" font-family="system-ui, -apple-system, 'Segoe UI', sans-serif" font-size="11.5" fill="#52514e"  text-anchor="middle">Jul 7</text><g fill="#2a78d6"><path d="M682,334 L682,93.07769142857143 Q682,89.07769142857143 686,89.07769142857143 L702,89.07769142857143 Q706,89.07769142857143 706,93.07769142857143 L706,334 Z"/></g><text x="694" y="81.07769142857143" font-family="system-ui, -apple-system, 'Segoe UI', sans-serif" font-size="11.5" font-weight="600" fill="#0b0b0b" text-anchor="middle">53.6M</text><text x="694" y="354" font-family="system-ui, -apple-system, 'Segoe UI', sans-serif" font-size="11.5" fill="#0b0b0b" font-weight="600" text-anchor="middle">Jul 8</text><line x1="64" y1="334" x2="736" y2="334" stroke="#c3c2b7" stroke-width="1"/>
</svg>