<svg xmlns="http://www.w3.org/2000/svg" width="760" height="440" viewBox="0 0 760 440"><rect x="0.5" y="0.5" width="759" height="439" rx="8" fill="#fcfcfb" stroke="rgba(11,11,11,0.10)"/><text x="24" y="34" font-family="system-ui, -apple-system, 'Segoe UI', sans-serif" font-size="15" fill="#0b0b0b" font-weight="600">Tokens per student, by workshop</text><text x="24" y="54" font-family="system-ui, -apple-system, 'Segoe UI', sans-serif" font-size="12" fill="#898781">Two 32k-window days cluster near ~2.5M/student; the 128k day is ~3.7× higher</text><rect x="64" y="66" width="10" height="10" rx="3" fill="#2a78d6"/><text x="80" y="75" font-family="system-ui, -apple-system, 'Segoe UI', sans-serif" font-size="12" fill="#52514e">New input</text><rect x="170" y="66" width="10" height="10" rx="3" fill="#1baf7a"/><text x="186" y="75" font-family="system-ui, -apple-system, 'Segoe UI', sans-serif" font-size="12" fill="#52514e">Cached input</text><rect x="300" y="66" width="10" height="10" rx="3" fill="#eda100"/><text x="316" y="75" font-family="system-ui, -apple-system, 'Segoe UI', sans-serif" font-size="12" fill="#52514e">Output</text><text x="56" y="388" font-family="system-ui, -apple-system, 'Segoe UI', sans-serif" font-size="11" fill="#898781" text-anchor="end">0</text><line x1="64" y1="329.2" x2="736" y2="329.2" stroke="#e1e0d9" stroke-width="1"/><text x="56" y="333.2" font-family="system-ui, -apple-system, 'Segoe UI', sans-serif" font-size="11" fill="#898781" text-anchor="end">2M</text><line x1="64" y1="274.4" x2="736" y2="274.4" stroke="#e1e0d9" stroke-width="1"/><text x="56" y="278.4" font-family="system-ui, -apple-system, 'Segoe UI', sans-serif" font-size="11" fill="#898781" text-anchor="end">4M</text><line x1="64" y1="219.6" x2="736" y2="219.6" stroke="#e1e0d9" stroke-width="1"/><text x="56" y="223.60000000000002" font-family="system-ui, -apple-system, 'Segoe UI', sans-serif" font-size="11" fill="#898781" text-anchor="end">6M</text><line x1="64" y1="164.8" x2="736" y2="164.8" stroke="#e1e0d9" stroke-width="1"/><text x="56" y="168.8" font-family="system-ui, -apple-system, 'Segoe UI', sans-serif" font-size="11" fill="#898781" text-anchor="end">8M</text><line x1="64" y1="110.0" x2="736" y2="110.0" stroke="#e1e0d9" stroke-width="1"/><text x="56" y="114.0" font-family="system-ui, -apple-system, 'Segoe UI', sans-serif" font-size="11" fill="#898781" text-anchor="end">10M</text><rect x="162.0" y="373.47" width="76" height="10.53" fill="#2a78d6"/><rect x="162.0" y="318.54" width="76" height="54.94" fill="#1baf7a"/><rect x="162.0" y="316.12" width="76" height="2.41" fill="#eda100"/><text x="200" y="308.12167860000005" font-family="system-ui, -apple-system, 'Segoe UI', sans-serif" font-size="12" fill="#0b0b0b" font-weight="600" text-anchor="middle">2.48M</text><text x="200" y="404" font-family="system-ui, -apple-system, 'Segoe UI', sans-serif" font-size="12" fill="#0b0b0b" font-weight="600" text-anchor="middle">Jul 3</text><text x="200" y="422" font-family="system-ui, -apple-system, 'Segoe UI', sans-serif" font-size="11" fill="#52514e" text-anchor="middle">32k window</text><rect x="362.0" y="366.91" width="76" height="17.09" fill="#2a78d6"/><rect x="362.0" y="312.30" width="76" height="54.61" fill="#1baf7a"/><rect x="362.0" y="310.60" width="76" height="1.70" fill="#eda100"/><text x="400" y="302.5998662" font-family="system-ui, -apple-system, 'Segoe UI', sans-serif" font-size="12" fill="#0b0b0b" font-weight="600" text-anchor="middle">2.68M</text><text x="400" y="404" font-family="system-ui, -apple-system, 'Segoe UI', sans-serif" font-size="12" fill="#0b0b0b" font-weight="600" text-anchor="middle">Jul 8</text><text x="400" y="422" font-family="system-ui, -apple-system, 'Segoe UI', sans-serif" font-size="11" fill="#52514e" text-anchor="middle">32k window</text><rect x="562.0" y="278.25" width="76" height="105.75" fill="#2a78d6"/><rect x="562.0" y="119.98" width="76" height="158.27" fill="#1baf7a"/><rect x="562.0" y="115.90" width="76" height="4.07" fill="#eda100"/><text x="600" y="107.9034122" font-family="system-ui, -apple-system, 'Segoe UI', sans-serif" font-size="12" fill="#0b0b0b" font-weight="600" text-anchor="middle">9.78M</text><text x="600" y="404" font-family="system-ui, -apple-system, 'Segoe UI', sans-serif" font-size="12" fill="#0b0b0b" font-weight="600" text-anchor="middle">Jul 14</text><text x="600" y="422" font-family="system-ui, -apple-system, 'Segoe UI', sans-serif" font-size="11" fill="#52514e" text-anchor="middle">128k window</text><line x1="64" y1="384" x2="736" y2="384" stroke="#c3c2b7" stroke-width="1"/></svg>