<svg xmlns="http://www.w3.org/2000/svg" width="760" height="360" viewBox="0 0 760 360"><rect x="0.5" y="0.5" width="759" height="359" rx="8" fill="#fcfcfb" stroke="rgba(11,11,11,0.10)"/><text x="24" y="34" font-family="system-ui, -apple-system, 'Segoe UI', sans-serif" font-size="15" fill="#0b0b0b" font-weight="600">New-input intensity tracks the context window</text><text x="24" y="54" font-family="system-ui, -apple-system, 'Segoe UI', sans-serif" font-size="12" fill="#898781">New-input tokens per student per practical hour · ~4× jump at 128k</text><rect x="64" y="66" width="10" height="10" rx="3" fill="#9ec5f4"/><text x="80" y="75" font-family="system-ui, -apple-system, 'Segoe UI', sans-serif" font-size="12" fill="#52514e">32k window</text><rect x="178" y="66" width="10" height="10" rx="3" fill="#2a78d6"/><text x="194" y="75" font-family="system-ui, -apple-system, 'Segoe UI', sans-serif" font-size="12" fill="#52514e">128k window</text><text x="56" y="324" font-family="system-ui, -apple-system, 'Segoe UI', sans-serif" font-size="11" fill="#898781" text-anchor="end">0</text><line x1="64" y1="241.4" x2="736" y2="241.4" stroke="#e1e0d9" stroke-width="1"/><text x="56" y="245.42857142857144" font-family="system-ui, -apple-system, 'Segoe UI', sans-serif" font-size="11" fill="#898781" text-anchor="end">0.5M</text><line x1="64" y1="162.9" x2="736" y2="162.9" stroke="#e1e0d9" stroke-width="1"/><text x="56" y="166.85714285714286" font-family="system-ui, -apple-system, 'Segoe UI', sans-serif" font-size="11" fill="#898781" text-anchor="end">1.0M</text><path d="M162.0,320 L162.0,293.8112857142857 Q162.0,289.8112857142857 166.0,289.8112857142857 L234.0,289.8112857142857 Q238.0,289.8112857142857 238.0,293.8112857142857 L238.0,320 Z" fill="#9ec5f4"/><text x="200" y="281.8112857142857" font-family="system-ui, -apple-system, 'Segoe UI', sans-serif" font-size="12.5" fill="#0b0b0b" font-weight="600" text-anchor="middle">0.19M/h</text><text x="200" y="342" font-family="system-ui, -apple-system, 'Segoe UI', sans-serif" font-size="12" fill="#52514e" text-anchor="middle">Jul 3 · 32k</text><path d="M362.0,320 L362.0,274.99185714285716 Q362.0,270.99185714285716 366.0,270.99185714285716 L434.0,270.99185714285716 Q438.0,270.99185714285716 438.0,274.99185714285716 L438.0,320 Z" fill="#9ec5f4"/><text x="400" y="262.99185714285716" font-family="system-ui, -apple-system, 'Segoe UI', sans-serif" font-size="12.5" fill="#0b0b0b" font-weight="600" text-anchor="middle">0.31M/h</text><text x="400" y="342" font-family="system-ui, -apple-system, 'Segoe UI', sans-serif" font-size="12" fill="#52514e" text-anchor="middle">Jul 8 · 32k</text><path d="M562.0,320 L562.0,121.83100000000002 Q562.0,117.83100000000002 566.0,117.83100000000002 L634.0,117.83100000000002 Q638.0,117.83100000000002 638.0,121.83100000000002 L638.0,320 Z" fill="#2a78d6"/><text x="600" y="109.83100000000002" font-family="system-ui, -apple-system, 'Segoe UI', sans-serif" font-size="12.5" fill="#0b0b0b" font-weight="600" text-anchor="middle">1.29M/h</text><text x="600" y="342" font-family="system-ui, -apple-system, 'Segoe UI', sans-serif" font-size="12" fill="#52514e" text-anchor="middle">Jul 14 · 128k</text><line x1="64" y1="320" x2="736" y2="320" stroke="#c3c2b7" stroke-width="1"/></svg>