<svg xmlns="http://www.w3.org/2000/svg" width="760" height="300" viewBox="0 0 760 300"><rect x="0.5" y="0.5" width="759" height="299" rx="8" fill="#fcfcfb" stroke="rgba(11,11,11,0.10)"/><text x="24" y="34" font-family="system-ui, -apple-system, 'Segoe UI', sans-serif" font-size="15" fill="#0b0b0b" font-weight="600">Where the cost goes, by workshop</text><text x="24" y="54" font-family="system-ui, -apple-system, 'Segoe UI', sans-serif" font-size="12" fill="#898781">Output-dominated (Jul 3) → balanced (Jul 8) → new-input-dominated (Jul 14)</text><rect x="150" y="66" width="10" height="10" rx="3" fill="#2a78d6"/><text x="166" y="75" font-family="system-ui, -apple-system, 'Segoe UI', sans-serif" font-size="12" fill="#52514e">New input</text><rect x="256" y="66" width="10" height="10" rx="3" fill="#1baf7a"/><text x="272" y="75" font-family="system-ui, -apple-system, 'Segoe UI', sans-serif" font-size="12" fill="#52514e">Cached input</text><rect x="386" y="66" width="10" height="10" rx="3" fill="#eda100"/><text x="402" y="75" font-family="system-ui, -apple-system, 'Segoe UI', sans-serif" font-size="12" fill="#52514e">Output</text><text x="138" y="118" font-family="system-ui, -apple-system, 'Segoe UI', sans-serif" font-size="12.5" fill="#0b0b0b" font-weight="600" text-anchor="end">Jul 3 · 32k</text><rect x="150.00" y="100" width="196.65" height="28" rx="3" fill="#2a78d6"/><text x="248.325" y="119" font-family="system-ui, -apple-system, 'Segoe UI', sans-serif" font-size="12" fill="#ffffff" font-weight="600" text-anchor="middle">34%</text><rect x="346.65" y="100" width="102.60" height="28" rx="3" fill="#1baf7a"/><text x="397.95" y="119" font-family="system-ui, -apple-system, 'Segoe UI', sans-serif" font-size="12" fill="#ffffff" font-weight="600" text-anchor="middle">18%</text><rect x="449.25" y="100" width="270.75" height="28" rx="3" fill="#eda100"/><text x="584.625" y="119" font-family="system-ui, -apple-system, 'Segoe UI', sans-serif" font-size="12" fill="#ffffff" font-weight="600" text-anchor="middle">48%</text><text x="138" y="170" font-family="system-ui, -apple-system, 'Segoe UI', sans-serif" font-size="12.5" fill="#0b0b0b" font-weight="600" text-anchor="end">Jul 8 · 32k</text><rect x="150.00" y="152" width="297.54" height="28" rx="3" fill="#2a78d6"/><text x="298.77" y="171" font-family="system-ui, -apple-system, 'Segoe UI', sans-serif" font-size="12" fill="#ffffff" font-weight="600" text-anchor="middle">52%</text><rect x="447.54" y="152" width="95.19" height="28" rx="3" fill="#1baf7a"/><text x="495.135" y="171" font-family="system-ui, -apple-system, 'Segoe UI', sans-serif" font-size="12" fill="#ffffff" font-weight="600" text-anchor="middle">17%</text><rect x="542.73" y="152" width="177.27" height="28" rx="3" fill="#eda100"/><text x="631.365" y="171" font-family="system-ui, -apple-system, 'Segoe UI', sans-serif" font-size="12" fill="#ffffff" font-weight="600" text-anchor="middle">31%</text><text x="138" y="222" font-family="system-ui, -apple-system, 'Segoe UI', sans-serif" font-size="12.5" fill="#0b0b0b" font-weight="600" text-anchor="end">Jul 14 · 128k</text><rect x="150.00" y="204" width="412.68" height="28" rx="3" fill="#2a78d6"/><text x="356.34000000000003" y="223" font-family="system-ui, -apple-system, 'Segoe UI', sans-serif" font-size="12" fill="#ffffff" font-weight="600" text-anchor="middle">72%</text><rect x="562.68" y="204" width="61.56" height="28" rx="3" fill="#1baf7a"/><text x="593.46" y="223" font-family="system-ui, -apple-system, 'Segoe UI', sans-serif" font-size="12" fill="#ffffff" font-weight="600" text-anchor="middle">11%</text><rect x="624.24" y="204" width="95.19" height="28" rx="3" fill="#eda100"/><text x="671.8350000000002" y="223" font-family="system-ui, -apple-system, 'Segoe UI', sans-serif" font-size="12" fill="#ffffff" font-weight="600" text-anchor="middle">17%</text></svg>