<svg xmlns="http://www.w3.org/2000/svg" width="760" height="340" viewBox="0 0 760 340"><rect x="0.5" y="0.5" width="759" height="339" rx="8" fill="#fcfcfb" stroke="rgba(11,11,11,0.10)"/><text x="24" y="34" font-family="system-ui, -apple-system, 'Segoe UI', sans-serif" font-size="15" fill="#0b0b0b" font-weight="600">Prefix-cache hit rate falls as the window grows</text><text x="24" y="54" font-family="system-ui, -apple-system, 'Segoe UI', sans-serif" font-size="12" fill="#898781">Cached input as a share of all input tokens · blended over the day</text><rect x="64" y="66" width="10" height="10" rx="3" fill="#9ec5f4"/><text x="80" y="75" font-family="system-ui, -apple-system, 'Segoe UI', sans-serif" font-size="12" fill="#52514e">32k window</text><rect x="178" y="66" width="10" height="10" rx="3" fill="#2a78d6"/><text x="194" y="75" font-family="system-ui, -apple-system, 'Segoe UI', sans-serif" font-size="12" fill="#52514e">128k window</text><text x="56" y="308" font-family="system-ui, -apple-system, 'Segoe UI', sans-serif" font-size="11" fill="#898781" text-anchor="end">0</text><line x1="64" y1="253.0" x2="736" y2="253.0" stroke="#e1e0d9" stroke-width="1"/><text x="56" y="257.0" font-family="system-ui, -apple-system, 'Segoe UI', sans-serif" font-size="11" fill="#898781" text-anchor="end">25%</text><line x1="64" y1="202.0" x2="736" y2="202.0" stroke="#e1e0d9" stroke-width="1"/><text x="56" y="206.0" font-family="system-ui, -apple-system, 'Segoe UI', sans-serif" font-size="11" fill="#898781" text-anchor="end">50%</text><line x1="64" y1="151.0" x2="736" y2="151.0" stroke="#e1e0d9" stroke-width="1"/><text x="56" y="155.0" font-family="system-ui, -apple-system, 'Segoe UI', sans-serif" font-size="11" fill="#898781" text-anchor="end">75%</text><line x1="64" y1="100.0" x2="736" y2="100.0" stroke="#e1e0d9" stroke-width="1"/><text x="56" y="104.0" font-family="system-ui, -apple-system, 'Segoe UI', sans-serif" font-size="11" fill="#898781" text-anchor="end">100%</text><path d="M162.0,304 L162.0,136.64 Q162.0,132.64 166.0,132.64 L234.0,132.64 Q238.0,132.64 238.0,136.64 L238.0,304 Z" fill="#9ec5f4"/><text x="200" y="124.63999999999999" font-family="system-ui, -apple-system, 'Segoe UI', sans-serif" font-size="13" fill="#0b0b0b" font-weight="600" text-anchor="middle">84%</text><text x="200" y="326" font-family="system-ui, -apple-system, 'Segoe UI', sans-serif" font-size="12" fill="#52514e" text-anchor="middle">Jul 3 · 32k</text><path d="M362.0,304 L362.0,157.04 Q362.0,153.04 366.0,153.04 L434.0,153.04 Q438.0,153.04 438.0,157.04 L438.0,304 Z" fill="#9ec5f4"/><text x="400" y="145.04" font-family="system-ui, -apple-system, 'Segoe UI', sans-serif" font-size="13" fill="#0b0b0b" font-weight="600" text-anchor="middle">74%</text><text x="400" y="326" font-family="system-ui, -apple-system, 'Segoe UI', sans-serif" font-size="12" fill="#52514e" text-anchor="middle">Jul 8 · 32k</text><path d="M562.0,304 L562.0,185.6 Q562.0,181.6 566.0,181.6 L634.0,181.6 Q638.0,181.6 638.0,185.6 L638.0,304 Z" fill="#2a78d6"/><text x="600" y="173.6" font-family="system-ui, -apple-system, 'Segoe UI', sans-serif" font-size="13" fill="#0b0b0b" font-weight="600" text-anchor="middle">60%</text><text x="600" y="326" font-family="system-ui, -apple-system, 'Segoe UI', sans-serif" font-size="12" fill="#52514e" text-anchor="middle">Jul 14 · 128k</text><line x1="64" y1="304" x2="736" y2="304" stroke="#c3c2b7" stroke-width="1"/></svg>